<?xml version="1.0" standalone="no"?>
<!DOCTYPE svg PUBLIC "-//W3C//DTD SVG 20010904//EN"
 "http://www.w3.org/TR/2001/REC-SVG-20010904/DTD/svg10.dtd">
<svg version="1.0" xmlns="http://www.w3.org/2000/svg"
 width="512.000000pt" height="512.000000pt" viewBox="0 0 512.000000 512.000000"
 preserveAspectRatio="xMidYMid meet">
<metadata>
Created by potrace 1.14, written by Peter Selinger 2001-2017
</metadata>
<g transform="translate(0.000000,512.000000) scale(0.100000,-0.100000)"
fill="#000000" stroke="none">
<path d="M0 2560 l0 -2560 2560 0 2560 0 0 2560 0 2560 -2560 0 -2560 0 0
-2560z m1538 1903 c82 -197 65 -380 -103 -1103 -72 -309 -108 -479 -121 -571
-9 -70 11 -150 47 -185 28 -26 36 -29 97 -28 37 1 96 9 131 18 66 18 237 88
254 105 13 13 57 204 122 526 92 455 142 779 171 1108 7 80 1 76 164 113 138
31 331 54 453 54 l98 0 -5 -52 c-3 -29 -8 -84 -11 -123 -15 -179 -87 -580
-176 -977 -21 -98 -39 -184 -39 -191 0 -11 12 -12 58 -6 136 18 371 39 553 49
776 43 1172 -177 1264 -704 20 -118 20 -390 -1 -538 -29 -209 -103 -455 -186
-621 -136 -272 -363 -514 -588 -627 -147 -73 -263 -100 -436 -100 -133 0 -252
19 -365 59 l-83 30 -81 -24 c-107 -31 -231 -45 -397 -45 l-138 0 0 53 c0 126
72 504 201 1050 169 721 194 852 186 966 -5 73 -32 171 -46 171 -3 0 -23 -73
-44 -162 -96 -423 -233 -769 -403 -1025 -155 -233 -404 -433 -626 -501 -100
-31 -264 -47 -345 -32 -123 21 -235 96 -288 191 -28 49 -30 62 -30 149 1 75 6
107 24 153 31 78 115 167 210 223 123 72 355 157 544 199 71 16 79 20 91 49
19 45 69 217 64 221 -2 2 -39 -12 -83 -32 -220 -97 -462 -157 -640 -158 -114
0 -123 1 -187 32 -87 41 -151 101 -188 177 -76 155 -60 325 85 941 107 454
147 711 125 809 -13 60 -50 140 -96 206 -33 48 -42 91 -26 117 23 36 347 74
698 81 l72 2 20 -47z"/>
<path d="M3360 2944 c-24 -5 -26 -10 -37 -103 -16 -132 -79 -445 -169 -846
-145 -638 -220 -1014 -210 -1040 14 -37 200 -43 287 -9 120 47 244 175 331
341 154 294 274 924 247 1294 -19 265 -103 359 -324 365 -55 1 -111 0 -125 -2z"/>
<path d="M1530 1818 c-172 -37 -310 -98 -386 -172 -50 -48 -54 -55 -54 -99 0
-39 4 -49 25 -63 39 -25 116 -21 179 10 95 47 232 190 290 304 18 36 18 36
-54 20z"/>
</g>
</svg>
